
<svg version="1.0" xmlns="http://www.w3.org/2000/svg"
 width="300.000000pt" height="300.000000pt" viewBox="0 0 300.000000 300.000000"
 preserveAspectRatio="xMidYMid meet">

<g transform="translate(0.000000,300.000000) scale(0.100000,-0.100000)"
fill="#000000" stroke="none">
<path d="M50 2810 l0 -140 45 0 45 0 0 -1075 0 -1075 -45 0 -45 0 0 -235 0
-235 185 0 185 0 0 36 c0 45 33 106 70 127 26 16 113 17 1013 17 l985 0 33
-27 c36 -31 59 -78 59 -123 l0 -30 185 0 185 0 0 235 0 235 -45 0 -45 0 0
1075 0 1075 45 0 45 0 0 140 0 140 -1450 0 -1450 0 0 -140z m2810 5 l0 -45
-1360 0 -1360 0 0 45 0 45 1360 0 1360 0 0 -45z m-90 -1220 l0 -1075 -1270 0
-1270 0 0 1075 0 1075 1270 0 1270 0 0 -1075z m90 -1220 l0 -45 -1360 0 -1360
0 0 45 0 45 1360 0 1360 0 0 -45z m-2510 -187 l-19 -43 -95 -3 -96 -3 0 46 0
45 115 0 114 0 -19 -42z m2510 -3 l0 -46 -96 3 -95 3 -19 43 -19 42 114 0 115
0 0 -45z"/>
<path d="M330 2345 l0 -235 325 0 325 0 0 235 0 235 -325 0 -325 0 0 -235z
m560 -5 l0 -140 -235 0 -235 0 0 140 0 140 235 0 235 0 0 -140z"/>
<path d="M520 2345 l0 -45 45 0 45 0 0 45 0 45 -45 0 -45 0 0 -45z"/>
<path d="M700 2345 l0 -45 50 0 50 0 0 45 0 45 -50 0 -50 0 0 -45z"/>
<path d="M1220 1595 l0 -985 610 0 610 0 0 985 0 985 -610 0 -610 0 0 -985z
m1120 -5 l0 -890 -515 0 -515 0 0 890 0 890 515 0 515 0 0 -890z"/>
<path d="M1500 1595 l0 -705 330 0 330 0 -2 703 -3 702 -327 3 -328 2 0 -705z
m560 560 l0 -45 -235 0 -235 0 0 45 0 45 235 0 235 0 0 -45z m0 -185 l0 -50
-235 0 -235 0 0 43 c0 24 3 47 7 50 3 4 109 7 235 7 l228 0 0 -50z m0 -190 l0
-50 -232 2 -233 3 -3 48 -3 47 235 0 236 0 0 -50z m0 -185 l0 -45 -235 0 -235
0 0 45 0 45 235 0 235 0 0 -45z m0 -190 l0 -45 -235 0 -235 0 0 45 0 45 235 0
235 0 0 -45z m0 -185 l0 -50 -235 0 -235 0 0 43 c0 24 3 47 7 50 3 4 109 7
235 7 l228 0 0 -50z m0 -190 l0 -50 -232 2 -233 3 -3 48 -3 47 235 0 236 0 0
-50z"/>
<path d="M1360 1595 l0 -185 45 0 45 0 0 185 0 185 -45 0 -45 0 0 -185z"/>
<path d="M330 1970 l0 -50 45 0 45 0 0 50 0 50 -45 0 -45 0 0 -50z"/>
<path d="M520 1970 l0 -50 45 0 45 0 0 50 0 50 -45 0 -45 0 0 -50z"/>
<path d="M707 2014 c-4 -4 -7 -27 -7 -51 l0 -43 51 0 50 0 -3 48 -3 47 -40 3
c-23 2 -44 0 -48 -4z"/>
<path d="M890 1970 l0 -50 45 0 45 0 0 50 0 50 -45 0 -45 0 0 -50z"/>
</g>
</svg>
