<svg version="1.0" xmlns="http://www.w3.org/2000/svg"
 width="300.000000pt" height="300.000000pt" viewBox="0 0 300.000000 300.000000"
 preserveAspectRatio="xMidYMid meet">
<g transform="translate(0.000000,300.000000) scale(0.050000,-0.050000)"
fill="#000000" stroke="none">
<path d="M193 5555 c3 -245 10 -695 16 -1001 8 -399 4 -552 -11 -542 -15 9
-18 -1 -9 -29 10 -31 5 -43 -16 -43 -37 0 -56 49 -30 75 14 14 13 25 -1 34
-12 7 -22 -1 -22 -19 0 -19 -9 -27 -22 -19 -12 8 -7 -9 11 -37 23 -34 26 -55
11 -64 -12 -7 -16 -31 -9 -52 8 -26 2 -38 -18 -38 -17 0 -34 16 -39 35 -6 21
-10 13 -12 -21 -1 -32 -11 -51 -22 -44 -11 7 -20 3 -20 -9 0 -19 28 -29 65
-23 8 1 15 -16 15 -38 0 -22 -10 -40 -22 -40 -14 0 -18 -60 -12 -182 5 -100 2
-174 -7 -165 -10 10 -20 94 -24 187 -3 94 -7 -68 -8 -360 -2 -323 5 -540 17
-555 14 -16 13 -45 -2 -88 -26 -76 -28 -118 -3 -78 32 50 66 -191 39 -271 -10
-29 -6 -41 14 -41 18 0 25 13 17 35 -14 46 20 65 52 27 21 -25 19 -28 -11 -16
-25 9 -32 6 -22 -9 7 -13 3 -44 -10 -69 -22 -40 -21 -42 6 -20 37 31 88 -67
70 -135 -7 -27 0 -40 19 -40 19 0 28 -16 25 -45 -3 -25 0 -63 8 -85 22 -68 33
-376 32 -930 -1 -611 -1 -578 10 -630 5 -22 11 -80 14 -130 l5 -90 13 110 13
110 4 -105 c2 -58 11 -105 21 -105 10 0 16 25 12 55 -13 119 -17 1604 -4 1618
8 7 14 -37 14 -100 0 -67 9 -113 22 -113 13 0 17 -22 10 -55 -33 -156 -30
-197 15 -200 23 -2 32 3 20 11 -12 8 -21 52 -20 98 1 46 8 75 14 64 7 -11 27
-14 46 -7 24 10 33 2 33 -27 0 -23 15 -56 33 -74 19 -20 32 -62 31 -101 -2
-37 6 -73 17 -79 10 -7 19 13 19 44 1 39 6 48 18 29 17 -27 10 -253 -8 -283
-5 -9 3 -21 19 -27 22 -8 26 4 17 59 -10 58 -6 67 21 56 27 -10 33 2 34 65 0
98 48 42 57 -68 2 -27 6 -29 20 -8 36 58 42 -28 32 -485 -9 -403 -6 -472 19
-472 18 0 31 27 36 75 l8 75 4 -77 c2 -50 11 -74 27 -68 19 6 24 116 21 446
-3 350 1 429 19 389 34 -71 36 -72 57 -39 18 29 29 -8 21 -74 -2 -13 6 -30 18
-37 11 -7 15 -37 10 -66 -9 -45 -8 -48 8 -14 11 22 21 63 22 90 3 43 6 41 24
-20 12 -38 25 -59 30 -45 14 38 40 30 52 -17 7 -25 20 -36 34 -28 18 11 21
-21 13 -123 -10 -113 -8 -122 7 -52 34 159 79 194 83 64 1 -60 7 -87 12 -61
33 175 65 98 65 -157 0 -322 38 -362 44 -46 l4 215 12 -220 12 -220 4 224 c6
326 57 321 69 -6 4 -110 11 -141 32 -133 16 6 23 30 18 58 -5 26 -2 47 8 47 9
0 17 -40 17 -90 0 -84 38 -133 42 -55 1 19 5 93 8 165 3 72 7 135 8 140 1 6
16 -16 32 -47 17 -32 24 -78 18 -105 -8 -29 -4 -48 10 -48 12 0 20 7 18 15 -2
8 4 51 13 95 15 73 18 76 30 30 10 -37 24 -48 57 -44 26 4 44 -4 44 -20 1 -19
6 -18 20 4 14 21 19 -7 20 -96 0 -75 8 -122 19 -115 11 7 15 24 9 38 -5 14 -1
48 10 74 17 44 20 40 21 -36 1 -62 9 -85 31 -85 23 0 30 24 30 99 0 110 29
149 49 67 11 -42 18 -48 32 -25 16 25 19 25 21 -1 1 -16 9 -7 18 20 14 44 16
45 18 8 2 -39 62 -62 62 -23 0 9 9 12 20 5 12 -7 16 -20 11 -28 -12 -20 52
-15 88 7 21 14 25 9 13 -21 -11 -30 -9 -33 10 -14 34 34 100 -4 85 -49 -6 -19
8 -8 31 25 l42 60 0 -65 c0 -77 59 -91 90 -22 29 63 84 64 100 1 10 -41 17
-46 31 -23 25 42 113 43 130 3 12 -30 15 -30 30 6 14 36 16 36 18 4 0 -20 10
-31 21 -24 12 7 15 23 7 35 -8 14 1 18 27 11 22 -6 55 -2 73 8 26 14 33 9 33
-23 0 -54 72 -55 86 -1 6 22 21 40 33 40 13 0 17 -11 8 -25 -11 -19 -8 -20 14
-4 40 30 119 32 119 3 0 -15 6 -17 15 -4 24 33 85 28 85 -6 0 -23 15 -17 58
24 42 40 61 48 68 29 8 -20 11 -20 12 -2 4 58 83 25 97 -40 l13 -65 14 60 13
60 3 -55 c4 -92 42 -62 42 33 0 78 4 87 40 78 22 -6 40 -1 40 11 0 14 23 17
63 9 45 -9 59 -6 49 11 -14 22 4 28 78 28 72 0 75 -5 66 -116 -12 -142 21
-112 36 33 26 257 107 274 111 23 l4 -175 11 130 c7 77 19 120 28 105 9 -14
11 -33 5 -44 -17 -26 10 -181 32 -181 9 0 17 96 17 212 0 203 2 212 40 202 22
-6 35 -3 30 6 -6 10 -2 23 10 30 11 7 20 3 20 -9 0 -39 41 -22 58 24 9 25 22
43 29 40 39 -15 93 -1 93 25 0 17 14 30 32 30 17 0 37 19 43 41 6 25 21 37 38
31 17 -7 28 5 29 34 2 41 3 41 17 -6 15 -47 16 -46 25 20 11 80 22 -266 16
-515 -2 -104 4 -165 18 -165 12 0 23 71 27 175 l7 175 4 -175 c2 -96 11 -175
19 -175 8 0 13 155 10 345 -5 359 17 521 66 502 15 -6 31 -25 36 -44 4 -18 10
-1 12 37 l5 70 18 -64 c10 -35 16 -240 13 -455 -3 -215 -2 -391 1 -391 26 0
70 68 49 75 -35 12 -35 285 0 285 18 1 18 5 3 15 -90 60 -4 645 95 645 10 0 6
18 -7 39 -14 22 -17 46 -8 55 10 9 22 5 26 -9 13 -36 46 -10 46 36 0 22 10 39
21 39 12 0 17 7 13 15 -5 8 0 38 10 65 19 48 21 48 37 10 13 -33 17 -27 19 30
2 39 11 88 20 110 10 23 18 -263 20 -690 2 -427 10 -713 20 -690 15 36 17 36
19 4 0 -22 13 -34 32 -30 27 5 31 93 32 726 1 830 21 1027 101 978 8 -6 10 17
3 51 -9 45 -4 64 21 73 17 7 32 29 32 50 0 21 12 38 27 38 14 0 26 -13 26 -29
0 -16 -6 -25 -14 -20 -19 11 -38 -64 -39 -149 0 -114 31 -37 39 93 0 14 12 25
26 25 15 0 26 28 27 71 0 40 -5 60 -14 45 -9 -14 -22 -18 -30 -11 -8 8 1 31
19 52 23 25 30 58 23 105 -8 55 -4 51 18 -22 l28 -90 2 81 c1 45 13 93 27 108
20 21 20 24 0 13 -18 -10 -25 6 -25 58 0 43 8 67 20 60 11 -7 20 -24 20 -39 0
-14 15 -38 33 -54 30 -24 31 -23 11 16 -22 41 11 105 40 76 6 -6 16 9 22 32
11 43 11 43 -40 -4 l-51 -47 9 54 c7 37 3 50 -12 42 -12 -8 -10 1 4 18 21 26
21 34 0 41 -21 7 -20 15 2 43 22 27 32 28 45 8 12 -19 16 -17 17 9 0 19 9 35
20 35 11 0 20 16 20 35 -1 26 -5 28 -17 9 -26 -41 -67 23 -58 90 l7 56 23 -50
c21 -47 22 -46 20 26 -1 42 -8 80 -16 85 -9 5 -11 26 -5 47 5 21 0 44 -12 51
-12 7 -22 67 -22 134 0 112 2 118 34 86 27 -28 29 -40 8 -73 -14 -22 -16 -35
-5 -28 11 7 25 -12 30 -43 5 -30 6 17 2 105 -4 88 -7 162 -8 165 -1 3 -11 5
-23 5 -12 0 -17 -13 -11 -29 11 -30 -20 -64 -41 -44 -23 24 -25 133 -2 128 13
-3 26 13 29 35 4 22 1 29 -5 15 -6 -14 -19 -25 -28 -25 -26 0 0 126 34 164 28
32 27 34 -13 26 -34 -6 -42 -1 -33 22 7 17 12 45 12 61 0 16 8 24 18 18 9 -6
23 9 29 34 7 27 1 50 -16 60 -21 11 -25 43 -17 125 8 79 5 110 -12 110 -14 0
-19 -9 -12 -20 7 -11 2 -36 -10 -55 -19 -30 -20 -29 -10 10 9 33 4 45 -19 45
-17 0 -31 11 -31 23 0 13 6 18 13 11 22 -23 91 28 79 59 -6 16 -4 24 6 18 25
-15 42 39 40 126 l-2 73 -22 -55 c-25 -63 -47 -70 -60 -20 -5 19 -10 6 -12
-29 -1 -35 -12 -70 -24 -77 -15 -9 -18 -1 -11 23 7 21 3 52 -7 68 -15 23 -20
16 -21 -30 -1 -33 -7 -49 -12 -35 -6 14 -23 25 -37 25 -15 0 -34 10 -42 23 -9
14 -5 18 9 9 13 -8 23 -5 23 6 0 34 -40 46 -71 21 -30 -25 -40 0 -32 86 1 20
-11 35 -28 35 -17 0 -26 8 -20 19 6 10 3 24 -9 31 -13 8 -20 301 -20 841 l0
829 -49 0 -50 0 -8 -715 c-4 -393 -11 -726 -14 -739 -9 -38 -39 -8 -39 40 -1
36 -4 38 -20 14 -15 -24 -20 -20 -20 20 -1 79 -23 141 -45 127 -13 -8 -17 10
-11 48 9 62 -31 71 -69 16 -9 -11 -14 49 -12 135 1 85 -3 161 -10 168 -14 13
-18 -33 -15 -164 1 -75 0 -77 -21 -30 -27 59 -36 221 -13 252 9 13 3 21 -16
21 -19 0 -28 -12 -22 -33 5 -19 -8 -44 -29 -58 -21 -13 -33 -33 -25 -45 9 -14
19 -12 30 6 14 21 17 20 18 -7 0 -21 -15 -32 -40 -31 -22 2 -40 15 -40 29 0
14 -18 26 -40 26 -39 0 -40 13 -40 460 0 447 -1 460 -40 460 -46 0 -43 33 -40
-431 2 -380 -3 -404 -72 -344 -26 23 -48 62 -48 87 0 27 -16 50 -39 58 -23 7
-35 24 -28 40 8 20 -2 26 -31 20 -34 -6 -42 3 -44 46 l-2 54 -16 -50 c-16 -49
-16 -49 -20 10 -4 59 -4 59 -20 10 -16 -49 -16 -49 -19 10 -3 57 -4 58 -22 14
-15 -38 -25 -42 -59 -24 -29 15 -40 15 -40 0 0 -13 -9 -17 -20 -10 -12 7 -20
117 -20 261 l0 249 -50 0 -50 0 0 -207 c0 -113 -5 -212 -12 -218 -19 -19 -108
69 -108 108 0 24 -10 32 -30 24 -21 -8 -30 2 -31 36 l-2 47 -18 -45 c-10 -25
-28 -45 -40 -45 -28 0 -20 159 10 199 16 22 15 25 -7 12 -22 -13 -26 -5 -18
36 6 29 3 53 -7 53 -9 0 -17 -59 -17 -131 0 -121 -3 -129 -37 -110 -21 11 -44
13 -51 6 -8 -8 -23 -1 -33 16 -17 25 -23 24 -40 -6 -39 -66 -59 -35 -59 95 0
161 -35 172 -45 15 l-7 -115 -4 115 c-5 156 -44 147 -45 -10 -1 -92 -6 -114
-19 -82 -13 32 -29 41 -59 33 -36 -9 -41 -1 -44 77 -1 55 -6 69 -12 37 -21
-118 -142 -117 -135 2 2 32 -4 58 -13 58 -9 0 -17 -18 -17 -40 0 -44 -32 -55
-45 -15 -5 14 -23 -7 -40 -47 -44 -104 -95 -96 -95 15 0 113 -72 131 -86 22
l-8 -65 -3 65 c-2 38 -14 65 -29 65 -17 0 -23 -24 -17 -80 4 -50 -1 -80 -15
-80 -12 0 -23 29 -24 65 0 36 -6 54 -11 41 -10 -26 -81 2 -110 43 -8 10 -21
-17 -30 -60 l-16 -79 -13 80 c-11 74 -13 75 -15 16 -2 -35 -11 -68 -20 -74
-10 -6 -14 20 -10 59 5 39 -1 69 -13 69 -11 0 -20 -18 -20 -40 0 -22 -9 -40
-20 -40 -11 0 -20 18 -20 40 0 22 -8 40 -19 40 -10 0 -14 -23 -9 -51 5 -30 -4
-63 -21 -81 -17 -17 -31 -23 -31 -14 0 9 -9 3 -19 -12 -12 -21 -22 -2 -32 65
-17 114 -89 140 -89 32 0 -73 -34 -145 -61 -128 -11 6 -15 19 -9 28 5 9 -4 22
-20 28 -18 7 -31 39 -32 77 -1 74 -9 61 -27 -47 -13 -79 -119 -128 -154 -72
-13 19 -16 19 -17 1 0 -14 -13 -20 -30 -13 -16 6 -30 20 -30 30 0 11 8 14 19
8 10 -7 17 6 16 29 -4 43 -35 57 -35 15 -1 -17 -7 -15 -20 5 -21 33 -28 -12
-20 -127 2 -35 -5 -53 -17 -45 -11 7 -24 -3 -28 -23 -4 -19 -15 39 -23 130
-15 156 -19 165 -64 165 -47 0 -48 -4 -50 -175 0 -96 -6 -164 -11 -150 -7 17
-22 11 -48 -20 l-38 -45 -3 50 c-1 28 -1 70 1 95 2 25 -4 46 -13 47 -9 0 -32
4 -51 8 -19 3 -35 -2 -35 -12 0 -10 10 -18 22 -18 13 0 18 -18 12 -40 -6 -22
-2 -35 8 -29 10 6 18 2 18 -10 0 -11 -13 -21 -29 -21 -15 0 -32 -16 -37 -35
-5 -19 -10 7 -12 59 -1 51 -12 100 -25 108 -17 10 -20 -3 -11 -47 9 -45 4 -65
-19 -73 -41 -16 -80 8 -47 28 15 9 18 26 9 41 -11 19 -20 13 -33 -20 -10 -29
-8 -56 5 -72 13 -16 14 -30 2 -37 -11 -7 -24 -1 -30 13 -9 24 -12 15 -21 -80
-22 -220 -72 -126 -72 135 0 345 -28 359 -41 20 l-11 -290 -4 285 c-3 195 -11
285 -27 285 -16 0 -19 -87 -12 -310 8 -254 5 -313 -19 -333 -24 -20 -28 -15
-22 32 3 34 -5 61 -20 66 -20 7 -23 -8 -13 -63 9 -48 6 -72 -9 -72 -12 0 -22
20 -22 45 -1 36 -4 39 -20 15 -16 -24 -19 -21 -20 16 0 28 9 41 21 33 15 -9
16 -2 2 24 -37 69 -50 117 -54 207 -12 271 -31 340 -92 340 -65 0 -68 -15 -26
-130 15 -44 29 -137 29 -206 0 -87 7 -122 22 -113 15 10 18 -10 11 -64 -6 -42
-12 -129 -12 -193 -1 -109 -39 -153 -42 -48 -1 33 -8 26 -26 -26 -14 -38 -36
-68 -49 -65 -13 3 -24 -15 -24 -40 0 -25 -17 -71 -38 -103 l-38 -58 -12 108
c-6 60 -14 292 -17 516 -5 325 -11 411 -33 418 -22 7 -26 -24 -18 -168 5 -98
2 -200 -6 -228 -8 -30 -16 42 -20 180 -4 127 -11 -32 -17 -352 -12 -615 -21
-671 -100 -628 -46 24 -63 6 -48 -53 7 -30 3 -47 -13 -47 -17 0 -22 21 -14 68
6 37 1 77 -11 89 -15 15 -14 30 5 53 14 17 20 37 13 44 -7 7 -13 2 -13 -11 0
-13 -9 -23 -19 -23 -11 0 -15 13 -9 29 14 35 -8 76 -33 61 -10 -7 -10 -31 0
-57 10 -26 9 -59 -2 -79 -10 -19 -11 -34 -2 -34 10 0 14 -29 10 -65 -4 -36 -6
-99 -5 -140 1 -51 -8 -79 -29 -87 -17 -7 -31 -21 -31 -31 0 -11 9 -14 20 -7
11 7 20 2 20 -10 0 -13 -11 -20 -25 -15 -16 6 -23 40 -20 97 l6 88 -35 -60
-34 -60 -16 100 c-9 55 -12 116 -8 135 6 24 -4 35 -30 35 -42 0 -55 -87 -17
-111 12 -7 17 -25 12 -39 -13 -33 38 -182 60 -173 9 3 20 -5 24 -18 5 -14 -1
-19 -14 -11 -15 9 -18 2 -10 -20 9 -23 5 -31 -13 -25 -15 5 -28 29 -30 53 -2
24 -11 51 -19 59 -9 8 -10 -30 -2 -85 18 -134 17 -252 -5 -309 -12 -33 -22 52
-31 271 -18 439 -16 784 5 751 14 -22 18 -22 26 0 18 51 19 397 1 397 -10 0
-17 -61 -15 -135 2 -74 -4 -157 -12 -185 -8 -27 -15 93 -16 267 -2 266 2 314
25 295 22 -18 26 -13 18 28 -5 27 -18 50 -27 50 -10 0 -18 27 -18 60 0 143
-39 44 -45 -115 l-7 -175 -4 175 c-2 96 -11 175 -20 175 -10 0 -14 -200 -11
-445z m1754 290 c9 -53 6 -85 -7 -85 -11 0 -20 42 -20 93 0 111 10 108 27 -8z
m3548 -960 c-3 -184 -6 -33 -6 335 0 369 3 519 6 335 3 -184 3 -486 0 -670z
m-2013 867 c1659 -302 2720 -2069 2176 -3627 -704 -2016 -3048 -2599 -4686
-1165 -811 710 -1077 2194 -572 3199 483 964 1227 1486 2320 1628 122 16 604
-6 762 -35z m-3245 -482 c-8 -22 -14 55 -12 170 l2 210 12 -170 c7 -93 6 -188
-2 -210z m936 172 c-1 -43 -9 -75 -17 -70 -19 12 -14 148 5 148 7 0 13 -35 12
-78z m-919 -827 c-4 -36 -8 -11 -8 55 0 66 4 95 8 65 5 -30 5 -84 0 -120z
m5517 -722 c32 13 35 -4 9 -63 -15 -34 -17 -35 -19 -5 0 19 -10 35 -21 35 -11
0 -19 16 -18 35 0 19 6 24 11 11 5 -13 23 -19 38 -13z m104 -208 c3 -39 -3
-62 -14 -56 -11 7 -14 27 -7 45 10 25 5 30 -21 20 -36 -14 -38 -11 -22 31 20
53 59 29 64 -40z m-5573 -2261 c2 -179 -2 -331 -9 -338 -7 -7 -13 143 -13 334
0 191 4 343 9 338 5 -5 11 -156 13 -334z m5173 -709 c-4 -69 -7 -12 -7 125 0
138 3 194 7 125 4 -69 4 -181 0 -250z m-5166 155 c8 -117 6 -170 -6 -152 -18
26 -32 359 -15 340 4 -4 13 -89 21 -188z m4606 -395 c-4 -58 -8 -11 -8 105 0
116 4 163 8 105 4 -58 4 -152 0 -210z m-4598 -105 c-2 -162 -12 -138 -22 55
-4 74 0 123 9 110 8 -14 14 -88 13 -165z"/>
<path d="M3070 5680 c-186 -122 -178 -390 18 -617 209 -241 268 -500 162 -713
-92 -183 -271 -124 -308 103 -15 94 -62 115 -62 28 0 -332 379 -410 513 -105
106 237 41 528 -169 764 -177 199 -235 389 -145 479 133 133 361 9 361 -195 0
-45 8 -64 25 -58 34 11 25 137 -15 215 -68 130 -258 180 -380 99z"/>
<path d="M2315 5646 l-55 -9 -1 -173 c0 -164 -4 -180 -70 -284 -293 -459 -244
-1276 62 -1036 38 30 59 37 64 21 6 -18 24 -16 70 7 l61 32 -13 253 c-7 139
-19 467 -26 728 -7 261 -19 474 -25 472 -7 -2 -37 -7 -67 -11z m-27 -906 c15
-497 12 -518 -87 -570 -206 -106 -217 480 -18 905 86 182 89 170 105 -335z"/>
<path d="M2823 5533 c-28 -33 5 -82 45 -67 18 7 32 26 32 41 0 39 -52 56 -77
26z"/>
<path d="M3695 5506 c-67 -17 -40 -64 30 -53 97 16 175 -62 175 -175 0 -77
-12 -97 -130 -219 -174 -181 -290 -462 -290 -704 0 -179 174 -279 305 -175 66
51 75 50 75 -8 0 -39 76 -94 128 -92 5 0 20 697 21 973 1 342 -5 359 -159 429
-82 38 -95 40 -155 24z m198 -541 c-7 -74 -18 -252 -24 -395 -14 -295 -53
-370 -193 -370 -232 0 -158 492 122 813 98 113 109 108 95 -48z"/>
<path d="M1772 5438 c-52 -41 -53 -47 -40 -186 13 -143 12 -145 -79 -313 -208
-386 -237 -961 -52 -1059 59 -32 127 0 179 85 26 43 40 53 40 30 0 -45 24 -44
81 2 45 36 45 38 23 275 -13 131 -29 364 -36 518 -7 154 -15 303 -18 330 -3
28 -6 120 -7 205 -3 168 -10 176 -91 113z m-12 -600 c0 -89 10 -291 22 -449
24 -315 -9 -450 -113 -465 -197 -28 -184 574 22 1001 54 112 69 93 69 -87z"/>
<path d="M4173 4927 c-21 -642 -17 -881 17 -947 59 -114 191 -155 286 -89 43
31 44 30 44 -38 0 -53 14 -81 55 -113 l55 -44 23 547 c13 301 28 582 34 624 9
74 -52 173 -107 173 -8 0 -21 -187 -29 -415 -22 -616 -27 -644 -109 -692 l-68
-40 -36 44 c-54 67 -65 227 -46 700 25 654 28 604 -44 647 l-62 36 -13 -393z"/>
<path d="M1190 4861 c-274 -112 -202 -1301 80 -1301 98 0 297 305 249 382 -13
21 -20 18 -30 -13 -93 -270 -186 -305 -257 -96 -43 127 -41 161 17 230 222
264 175 894 -59 798z m110 -86 c78 -128 46 -431 -70 -654 -56 -109 -74 -48
-72 250 2 317 14 409 58 444 42 33 39 34 84 -40z"/>
<path d="M4813 4584 c-7 -107 -22 -386 -34 -622 l-22 -427 55 -58 c31 -31 62
-57 70 -57 7 0 21 209 30 465 9 256 17 472 19 480 2 8 5 42 7 75 4 114 243 51
274 -73 20 -79 -8 -596 -49 -907 -26 -195 -30 -281 -15 -310 32 -61 132 740
132 1053 0 234 -91 357 -265 357 -71 0 -75 3 -76 65 -1 47 -17 78 -57 109
l-56 44 -13 -194z"/>
<path d="M638 4386 c-146 -161 -318 -542 -318 -704 -1 -218 49 -1142 63 -1142
74 0 149 163 134 294 -34 306 -29 329 90 456 160 169 225 144 231 -90 4 -147
27 -158 109 -49 82 107 80 94 52 268 -32 197 -84 230 -189 121 -79 -82 -80
-67 -10 84 233 498 112 1066 -162 762z m138 -367 c8 -390 -4 -432 -189 -679
l-97 -130 -16 395 -16 395 74 141 c189 360 236 337 244 -122z"/>
<path d="M3035 4032 c-98 -36 -127 -61 -188 -166 -93 -158 -140 -156 -305 15
-105 109 -172 126 -283 69 -104 -54 -154 -212 -88 -279 49 -48 59 -38 59 61 0
210 180 227 357 34 90 -98 162 -101 247 -11 36 39 66 77 66 85 0 99 358 145
467 59 71 -56 82 -48 33 21 -79 111 -236 159 -365 112z"/>
<path d="M5334 3987 c-22 -22 7 -47 54 -47 161 0 194 -177 62 -324 -320 -356
-333 -796 -25 -848 41 -7 75 -24 75 -37 0 -20 103 -111 126 -111 46 0 30 1160
-16 1237 -57 95 -230 177 -276 130z m199 -692 c-18 -480 -21 -496 -100 -473
-190 55 -237 252 -118 498 54 111 197 316 223 319 5 1 2 -154 -5 -344z"/>
<path d="M3050 3896 c-22 -12 -95 -75 -163 -139 -155 -147 -182 -147 -329 -7
-87 84 -130 110 -175 110 -110 0 -163 -140 -83 -220 49 -49 119 -58 80 -10
-35 42 8 90 81 90 40 0 81 -27 151 -100 170 -177 263 -177 469 3 157 136 215
139 323 17 89 -100 104 -97 79 18 -47 208 -268 330 -433 238z"/>
<path d="M3635 3819 c-49 -29 -95 -125 -95 -198 0 -72 5 -74 78 -19 65 48 118
33 192 -54 127 -148 309 6 188 160 -41 52 -39 127 2 102 11 -7 15 -21 9 -31
-6 -11 3 -19 21 -19 40 0 31 39 -16 68 -24 16 -44 15 -69 -1 -33 -21 -36 -42
-21 -137 14 -91 -79 -59 -128 44 -48 100 -94 124 -161 85z"/>
<path d="M3135 3603 c-47 -42 -107 -91 -134 -110 l-50 -33 45 0 c25 0 82 -19
127 -42 110 -56 243 -35 305 48 l42 57 -84 78 c-105 98 -145 99 -251 2z"/>
<path d="M1875 3638 c-282 -66 -358 -284 -185 -527 109 -153 75 -226 -89 -189
-152 34 -186 -113 -63 -282 107 -148 15 -330 -107 -209 -43 44 -39 74 9 59 51
-16 57 59 7 78 -91 35 -136 -101 -58 -179 117 -117 271 -12 271 185 0 131 30
189 121 236 79 41 90 102 40 227 -122 309 101 486 389 309 160 -99 263 -102
390 -13 50 35 123 69 164 76 93 16 119 51 39 51 -36 0 -86 22 -123 53 l-62 53
-32 -46 c-49 -70 -212 -48 -412 58 -163 86 -178 89 -299 60z"/>
<path d="M2430 3587 c-40 -32 -40 -32 0 -18 45 16 50 17 85 13 14 -1 25 -12
25 -23 0 -12 -9 -16 -20 -9 -11 7 -20 2 -20 -10 0 -41 50 -8 56 37 8 53 -64
59 -126 10z"/>
<path d="M3604 3556 c-29 -29 -32 -104 -4 -86 11 7 20 2 20 -11 0 -13 12 -19
27 -13 15 6 52 -6 83 -26 l55 -36 -53 -35 c-29 -19 -49 -39 -43 -44 5 -6 33 5
61 23 46 30 54 31 82 3 17 -17 44 -31 59 -31 16 0 29 -9 29 -20 0 -11 -10 -20
-23 -20 -13 0 -18 -6 -11 -13 7 -7 28 0 46 15 30 25 32 23 18 -22 -8 -28 -25
-57 -38 -66 -12 -8 5 -10 38 -3 46 9 53 7 30 -9 -23 -16 -2 -21 85 -22 163 0
203 -42 184 -192 -23 -187 54 -231 229 -133 102 57 182 36 182 -47 0 -37 -42
-57 -60 -28 -11 18 -19 18 -29 1 -44 -71 55 -97 120 -32 157 157 -24 293 -234
176 -164 -91 -204 9 -96 240 97 208 37 287 -199 262 -172 -18 -242 2 -360 103
-108 92 -156 108 -198 66z"/>
<path d="M3478 3453 c-52 -113 -234 -147 -388 -73 -161 78 -276 23 -347 -166
-31 -81 -48 -104 -81 -102 -38 1 -40 -3 -15 -40 44 -66 75 -50 117 64 72 193
144 203 331 43 63 -54 139 -107 168 -117 157 -55 371 270 269 409 -27 37 -29
37 -54 -18z"/>
<path d="M1899 3322 c-77 -74 -95 -172 -49 -262 19 -37 36 -100 37 -141 5
-122 33 -67 33 63 0 216 107 340 267 310 63 -11 63 -11 -17 38 -109 68 -195
65 -271 -8z"/>
<path d="M3581 3270 c0 -172 112 -290 275 -290 96 0 116 -8 176 -68 119 -119
101 -185 -117 -428 -122 -135 -105 -214 45 -214 189 0 209 -62 79 -256 -178
-267 -6 -367 187 -109 122 164 270 140 192 -32 -36 -79 7 -137 98 -129 55 4
76 16 81 45 7 34 3 36 -24 13 -77 -63 -122 35 -63 138 66 115 -4 218 -129 190
-64 -14 -107 -60 -203 -216 -46 -76 -69 -95 -103 -90 -78 11 -67 85 34 222
167 224 124 360 -94 295 -158 -47 -153 23 14 196 286 297 225 555 -130 546
-170 -4 -178 0 -267 157 -50 88 -52 89 -51 30z"/>
<path d="M2028 3192 c-127 -127 -84 -352 83 -432 132 -65 218 -31 326 126 80
116 112 127 196 63 100 -76 166 -62 219 49 69 144 116 147 264 19 87 -76 198
-78 278 -6 44 41 47 47 12 30 -106 -51 -358 53 -437 181 -44 71 -138 4 -176
-125 -33 -117 -100 -121 -171 -12 -37 56 -62 75 -103 75 -53 0 -66 -11 -214
-187 -114 -136 -336 -6 -263 154 30 64 108 100 159 72 49 -25 51 -73 4 -85
-30 -8 -30 -10 -2 -12 60 -4 86 52 49 108 -49 75 -138 68 -224 -18z"/>
<path d="M2313 3207 c-7 -8 -13 -30 -13 -49 0 -46 -53 -98 -99 -98 -52 0 -71
63 -28 94 43 32 1 35 -56 4 -22 -11 -35 -33 -30 -48 6 -15 0 -32 -13 -37 -13
-6 -9 -11 10 -11 18 -1 40 -12 48 -25 9 -15 5 -18 -12 -7 -17 10 -21 8 -13 -6
17 -27 134 -15 153 17 8 12 22 22 32 22 50 0 142 134 99 145 -53 15 -62 15
-78 -1z"/>
<path d="M3497 3115 c-126 -246 -55 -435 163 -435 153 0 182 -72 80 -200 -188
-238 -83 -456 165 -342 60 27 96 33 130 20 63 -24 63 -24 51 22 -12 45 -19 47
-147 41 -193 -9 -199 121 -15 328 204 228 172 365 -92 392 -156 16 -221 63
-253 183 -26 95 -29 95 -82 -9z"/>
<path d="M1911 2816 c-54 -77 -38 -131 69 -234 110 -106 118 -133 63 -204
-100 -129 -106 -237 -12 -194 33 15 46 34 39 57 -7 21 19 70 70 131 44 53 80
109 80 123 0 53 -100 222 -139 235 -21 6 -62 39 -89 71 l-50 59 -31 -44z"/>
<path d="M1810 2780 c-131 -50 -161 -199 -72 -365 106 -196 85 -230 -147 -239
-306 -12 -302 -301 5 -405 189 -64 256 -184 165 -294 -52 -64 -102 -32 -130
84 -19 80 -27 89 -79 89 -78 0 -114 -56 -67 -104 33 -33 35 -32 35 11 0 96 69
41 81 -65 18 -153 147 -206 250 -103 110 110 43 315 -135 411 -256 139 -246
228 29 260 246 28 268 157 72 428 -65 90 -64 138 7 237 46 65 43 77 -14 55z"/>
<path d="M1825 2666 c-37 -65 -32 -82 58 -218 l83 -126 38 49 c50 64 34 113
-64 192 -43 34 -81 81 -84 104 l-7 43 -24 -44z"/>
<path d="M2411 2645 c-8 -9 -65 -21 -106 -23 -14 -1 -25 -11 -25 -22 0 -12 21
-15 49 -8 102 25 285 19 396 -14 116 -35 150 -26 127 34 -6 17 -21 25 -32 18
-11 -7 -21 -1 -21 14 -1 14 -10 8 -19 -14 -17 -40 -17 -40 -20 0 -3 40 -3 40
-20 0 -13 -30 -18 -32 -19 -8 -1 30 -282 50 -310 23z"/>
<path d="M3235 2644 c-34 -4 -50 -15 -42 -28 9 -15 4 -16 -15 -5 -60 38 -118
25 -118 -25 0 -49 74 -57 139 -16 46 28 306 24 365 -5 32 -16 63 -24 69 -18
21 21 -145 86 -233 91 -49 3 -94 7 -100 10 -5 2 -35 0 -65 -4z"/>
<path d="M2781 2470 c-5 -61 -34 -71 -112 -38 -100 41 -349 19 -349 -32 0 -9
38 -7 85 4 123 28 244 9 323 -51 l68 -52 8 57 c5 31 2 74 -6 94 -9 21 -16 29
-17 18z"/>
<path d="M3085 2404 c-54 -114 -35 -141 60 -84 75 44 205 57 325 33 66 -13 76
-12 54 10 -18 19 -83 27 -216 26 -147 -2 -187 4 -180 24 20 50 -19 43 -43 -9z"/>
<path d="M2300 2319 c0 -10 -18 -19 -40 -19 -22 0 -40 -9 -40 -21 0 -13 26
-16 70 -8 84 16 90 1 15 -40 -51 -27 -52 -29 -11 -30 24 -1 49 8 56 19 7 11
32 20 56 20 43 -1 43 -2 -6 -40 -62 -48 -36 -52 41 -6 66 39 109 17 50 -25
-21 -16 -33 -33 -28 -39 6 -6 34 8 62 30 68 53 113 53 65 0 -20 -22 -27 -40
-16 -40 11 0 36 18 56 40 48 53 76 51 60 -5 l-12 -45 39 45 c22 25 51 45 65
45 13 0 18 7 10 15 -9 8 -73 16 -143 18 -88 2 -161 19 -238 54 -61 28 -111 42
-111 32z"/>
<path d="M3470 2245 c-40 -22 -117 -35 -230 -39 -93 -3 -172 -5 -175 -6 -9 0
75 -80 84 -80 6 0 4 16 -3 35 -8 21 9 13 42 -22 54 -58 100 -61 52 -3 -32 38
-2 38 49 -1 56 -42 83 -36 41 11 -30 34 -31 40 -6 40 17 0 42 -13 56 -30 14
-16 39 -30 56 -30 25 0 24 6 -7 28 -21 16 -32 36 -24 44 9 8 26 5 39 -8 13
-13 42 -23 65 -22 34 2 35 4 6 12 -67 17 -35 48 40 38 41 -6 59 -6 40 0 -19 6
-35 24 -35 39 0 37 -16 35 -90 -6z"/>
<path d="M2012 2134 c-39 -29 -37 -96 3 -109 17 -6 21 3 12 26 -17 44 31 31
61 -16 30 -49 -1 -66 -70 -40 -72 27 -112 15 -129 -38 -17 -53 33 -117 52 -66
9 28 36 36 125 37 137 2 137 3 25 -107 -192 -189 -200 -381 -16 -381 143 0
162 -50 55 -154 -127 -123 -69 -238 93 -185 92 30 112 17 80 -52 -85 -187 99
-321 212 -155 61 89 125 149 145 136 32 -20 23 -50 -14 -50 -27 0 -29 -5 -10
-24 33 -33 115 46 97 93 -32 85 -147 50 -200 -61 -63 -133 -212 -136 -185 -4
38 182 40 170 -21 192 -45 17 -49 21 -16 22 97 4 119 -41 78 -155 -41 -115
-25 -157 50 -133 38 12 39 17 14 37 -25 19 -26 40 -8 127 26 122 6 160 -91
170 -68 6 -66 1 -43 151 8 57 3 65 -46 76 -30 7 -66 16 -80 20 -41 13 -29 79
23 127 l48 45 -40 90 c-21 50 -35 95 -30 100 5 5 20 -20 32 -56 44 -126 213
-369 361 -519 l151 -152 140 -11 c231 -18 403 120 639 513 72 120 131 212 131
204 0 -21 -81 -175 -123 -235 -49 -71 -47 -97 11 -97 112 0 148 -167 56 -259
-70 -70 -88 -74 -133 -29 -26 26 -28 38 -7 62 16 20 27 22 32 8 12 -37 44 -24
44 18 0 46 -76 56 -116 16 -44 -44 -29 -149 28 -194 179 -141 563 25 439 189
-63 83 -19 169 85 169 41 0 104 58 104 97 0 14 -33 23 -82 23 -93 0 -183 76
-207 175 -27 110 -72 158 -106 113 -30 -37 -30 -37 -17 1 8 22 17 76 21 120 3
45 2 63 -3 41 -61 -271 -235 -554 -484 -787 -241 -224 -471 -145 -777 267
l-89 120 66 13 c157 32 199 290 65 396 -60 47 -182 74 -210 46 -13 -13 10 -23
67 -31 202 -27 247 -324 58 -390 -58 -21 -142 98 -142 201 0 15 -10 37 -23 50
-18 18 -17 30 1 52 79 95 -83 222 -186 147z m188 -884 c-22 -26 -20 -36 12
-60 42 -31 16 -41 -31 -11 -24 15 -24 28 -4 72 13 30 30 49 37 42 6 -7 0 -26
-14 -43z"/>
<path d="M440 2120 c-27 -16 -27 -22 0 -49 37 -36 91 -9 74 37 -14 37 -31 39
-74 12z"/>
<path d="M3953 2126 c-24 -6 -33 -22 -27 -47 6 -22 -14 -75 -45 -124 -87 -133
-90 -178 -20 -250 128 -130 257 -95 366 102 62 113 73 123 131 120 41 -2 61 5
56 20 -15 46 -88 35 -136 -19 -168 -190 -195 -211 -262 -204 -109 10 -121 88
-39 247 37 70 61 137 54 148 -14 22 -18 22 -78 7z"/>
<path d="M3713 2050 c-38 -99 28 -154 89 -75 15 19 19 28 9 20 -10 -8 -33 8
-52 36 -28 44 -36 47 -46 19z"/>
<path d="M1830 2036 c-97 -55 -98 -172 -2 -268 86 -86 92 -85 189 16 86 91 95
121 20 68 -140 -98 -261 65 -129 173 52 42 -7 51 -78 11z"/>
<path d="M3466 2038 c-149 -43 -234 -289 -138 -396 61 -67 75 -49 30 38 -76
146 33 319 201 321 84 0 88 2 52 30 -43 33 -54 33 -145 7z"/>
<path d="M530 1977 c-121 -75 -120 -74 -104 -89 6 -7 44 7 84 32 68 42 87 43
180 11 39 -14 39 -13 -2 23 -22 20 -37 48 -33 61 13 39 -16 30 -125 -38z"/>
<path d="M5290 1979 c-8 -12 -5 -32 6 -43 27 -27 90 -4 79 29 -11 33 -68 43
-85 14z"/>
<path d="M2740 1876 c0 -9 29 -18 65 -19 180 -10 275 -5 275 13 0 12 -71 21
-170 21 -94 1 -170 -5 -170 -15z"/>
<path d="M4554 1872 c-8 -19 1 -24 29 -17 35 9 39 2 33 -57 -6 -63 -12 -68
-81 -74 -85 -7 -83 -44 2 -44 81 0 143 52 143 120 0 79 -101 137 -126 72z"/>
<path d="M5120 1883 c0 -25 237 -167 264 -158 12 4 -33 45 -101 91 -121 83
-163 100 -163 67z"/>
<path d="M608 1822 c-34 -21 -67 -57 -73 -80 -13 -47 52 -142 78 -115 9 9 1
25 -18 35 -43 25 -45 65 -4 106 29 29 36 26 83 -29 49 -58 53 -59 89 -26 108
98 -24 191 -155 109z m149 -9 c17 -19 15 -36 -4 -63 -25 -34 -28 -33 -60 11
-25 36 -27 51 -8 63 35 22 47 20 72 -11z"/>
<path d="M5143 1714 c-12 -14 -29 -47 -39 -73 -17 -46 -17 -46 -43 16 -29 72
-71 86 -50 18 56 -185 309 -232 309 -57 0 106 -116 169 -177 96z m137 -54 c43
-81 -52 -160 -116 -96 -50 50 -13 136 59 136 20 0 45 -18 57 -40z"/>
<path d="M716 1649 c-86 -47 -91 -99 -19 -206 19 -29 283 161 283 203 0 10
-14 8 -30 -6 -25 -21 -37 -19 -67 7 -44 40 -96 41 -167 2z m156 -32 c17 -29
-87 -117 -138 -117 -51 0 -64 55 -23 101 39 43 138 53 161 16z"/>
<path d="M2707 1662 l-64 -12 79 -80 c104 -105 253 -117 326 -25 24 30 54 55
68 55 13 0 24 11 24 23 0 13 -5 18 -12 12 -7 -7 -36 -3 -65 9 -62 24 -265 35
-356 18z m341 -62 c29 -29 -122 -86 -186 -70 -62 16 -125 68 -111 92 14 23
271 4 297 -22z"/>
<path d="M2224 1596 c-37 -37 -29 -96 14 -96 57 0 93 52 62 90 -30 36 -45 37
-76 6z"/>
<path d="M4877 1551 c-17 -36 -18 -58 -3 -73 15 -15 25 -5 34 32 22 88 75 53
128 -85 54 -142 70 -150 115 -63 37 71 23 104 -20 47 -33 -46 -31 -47 -82 81
-49 122 -131 151 -172 61z"/>
<path d="M844 1449 c-60 -42 -58 -130 5 -184 l48 -42 117 101 c64 56 119 116
123 134 7 28 2 27 -32 -4 -35 -31 -42 -32 -65 -5 -32 40 -139 40 -196 0z m137
-10 c54 -28 49 -65 -16 -111 -105 -76 -192 4 -95 87 60 52 60 52 111 24z"/>
<path d="M2791 1441 c-7 -11 30 -18 88 -16 54 1 95 9 89 18 -14 23 -163 21
-177 -2z"/>
<path d="M4450 1347 c-100 -67 -99 -65 -87 -76 5 -5 53 22 107 60 113 81 97
94 -20 16z"/>
<path d="M4856 1365 c-17 -19 -35 -48 -41 -65 -7 -21 -17 -14 -32 25 -19 47
-63 78 -63 44 0 -34 86 -171 124 -198 132 -92 261 66 147 180 -58 58 -94 62
-135 14z m114 -37 c65 -66 -9 -187 -78 -129 -38 31 -43 133 -7 148 41 16 51
14 85 -19z"/>
<path d="M1089 1299 c-7 -12 -2 -48 11 -80 32 -76 13 -124 -45 -115 -32 4 -47
22 -51 61 -4 31 -15 50 -25 44 -32 -19 -21 -81 20 -118 80 -72 192 13 142 107
-30 55 -26 82 11 82 17 0 36 -18 42 -40 13 -50 46 -53 46 -4 0 71 -116 119
-151 63z"/>
<path d="M1188 1110 c-71 -71 -60 -153 24 -180 35 -11 58 -31 53 -45 -17 -52
14 -21 93 89 l81 114 -55 36 c-75 49 -137 45 -196 -14z m172 -9 c47 -30 -37
-129 -117 -137 -55 -6 -63 -1 -63 43 0 92 100 144 180 94z"/>
<path d="M4488 1075 c15 -80 69 -155 139 -195 120 -68 201 135 83 212 -55 36
-103 19 -139 -49 l-27 -53 -14 75 c-8 41 -24 75 -35 75 -12 0 -15 -26 -7 -65z
m232 -61 c27 -47 26 -56 -3 -86 -49 -48 -117 -19 -117 49 0 108 68 129 120 37z"/>
<path d="M1412 987 c-76 -112 -62 -207 31 -207 19 0 37 -16 41 -35 5 -24 29 3
74 81 36 64 60 123 51 130 -8 8 -18 3 -23 -10 -22 -61 -93 -126 -137 -126 -63
0 -65 59 -7 154 59 95 33 106 -30 13z"/>
<path d="M4313 1003 c-34 -38 -44 -83 -18 -83 9 0 27 18 40 40 53 84 124 -2
125 -150 1 -83 30 -97 92 -43 32 27 51 56 43 65 -8 8 -32 -1 -52 -19 -36 -33
-38 -31 -51 51 -26 159 -105 221 -179 139z"/>
<path d="M4140 865 c1 -77 69 -218 118 -244 120 -64 227 135 113 210 -54 35
-113 17 -149 -46 -16 -29 -22 -19 -33 50 -16 95 -49 116 -49 30z m236 -139
c-9 -75 -70 -107 -107 -57 -37 50 -37 81 2 120 47 46 113 6 105 -63z"/>
<path d="M1611 807 c-67 -121 -54 -163 16 -52 92 146 192 101 114 -52 -46 -91
-49 -103 -23 -103 18 0 102 181 102 220 0 18 -114 80 -148 80 -5 0 -32 -42
-61 -93z"/>
<path d="M3946 817 c72 -54 134 -177 134 -267 0 -43 8 -67 20 -60 84 52 -66
371 -174 369 -29 0 -24 -9 20 -42z"/>
<path d="M1871 757 c-118 -93 -98 -251 31 -232 42 6 58 0 58 -22 0 -46 25 -10
64 93 48 125 45 153 -15 181 -68 31 -75 30 -138 -20z m115 -22 c79 -59 -42
-220 -130 -173 -50 27 -45 91 13 149 56 56 70 59 117 24z"/>
<path d="M3840 764 c0 -31 85 -274 103 -293 28 -31 20 22 -25 171 -35 115 -78
183 -78 122z"/>
<path d="M3685 735 c-11 -14 -25 -52 -31 -85 -6 -33 -18 -77 -26 -98 -13 -34
-7 -36 56 -24 65 12 73 8 96 -48 14 -33 34 -60 45 -60 11 0 13 15 4 35 -9 19
-16 59 -16 89 1 30 -10 58 -24 64 -14 5 -31 37 -39 70 -15 72 -38 91 -65 57z
m31 -158 c-47 -29 -54 -18 -32 47 22 62 23 63 40 16 12 -32 9 -52 -8 -63z"/>
<path d="M3420 654 c-38 -13 -68 -31 -65 -39 3 -8 5 -34 5 -56 0 -38 8 -40 88
-28 77 11 91 7 111 -29 38 -71 -7 -129 -91 -116 -79 13 -93 -19 -17 -38 92
-23 149 20 149 111 0 97 -46 129 -153 109 -99 -19 -82 35 20 59 40 9 73 25 73
35 0 24 -34 21 -120 -8z"/>
<path d="M2224 615 c-106 -113 24 -319 132 -211 38 38 28 59 -16 31 -53 -32
-108 1 -116 70 -8 68 48 121 111 106 35 -9 46 -5 40 13 -15 47 -103 41 -151
-9z"/>
<path d="M3273 615 c-29 -106 19 -283 88 -326 44 -27 41 9 -4 71 -38 51 -47
87 -45 182 2 119 -17 156 -39 73z"/>
<path d="M2462 568 c-83 -105 -59 -228 45 -228 104 0 169 164 95 238 -55 55
-90 53 -140 -10z m125 -31 c44 -71 -41 -198 -106 -157 -41 25 -34 141 10 173
43 32 68 27 96 -16z"/>
<path d="M2646 448 c-11 -60 -13 -114 -5 -119 19 -11 39 41 39 100 0 54 48
101 81 80 16 -9 20 -45 12 -101 -7 -47 -4 -91 7 -98 10 -6 25 34 32 90 18 136
77 136 81 0 3 -127 5 -134 27 -100 27 42 25 195 -4 212 -13 8 -46 17 -75 21
-28 3 -79 10 -113 15 -61 10 -62 9 -82 -100z"/>
<path d="M1607 5970 c-6 -16 -21 -24 -34 -17 -14 8 -13 2 2 -14 14 -15 25 -50
25 -78 1 -37 5 -43 18 -23 10 15 28 21 40 13 20 -12 30 26 27 104 0 13 8 20
17 14 10 -6 18 -2 18 10 0 33 -100 25 -113 -9z"/>
<path d="M4538 5965 c-2 -19 -1 -44 1 -54 2 -11 5 -45 6 -75 2 -104 28 -57 29
54 0 98 -30 162 -36 75z"/>
<path d="M5733 5969 c6 -16 0 -43 -13 -59 -35 -43 7 -37 46 6 30 33 29 37 -6
59 -32 20 -37 19 -27 -6z"/>
<path d="M5860 5981 c0 -12 11 -21 25 -21 17 -1 16 -6 -4 -19 -41 -26 -50
-119 -12 -133 17 -7 25 -22 18 -33 -8 -12 -4 -15 10 -7 33 20 29 52 -7 52 -16
0 -30 14 -30 31 0 17 8 26 18 20 10 -6 23 0 29 14 7 19 10 18 11 -2 2 -23 8
-23 32 -3 33 28 42 70 10 50 -11 -7 -20 -3 -20 8 0 11 -18 30 -40 42 -27 15
-40 15 -40 1z"/>
<path d="M434 5845 c6 -30 11 -71 10 -90 -1 -19 7 -35 17 -35 22 0 24 31 7
118 -7 34 -20 62 -29 62 -9 0 -11 -25 -5 -55z"/>
<path d="M26 5583 c3 -66 -2 -116 -10 -110 -9 5 -16 0 -16 -12 0 -24 33 -28
47 -6 22 36 20 233 -2 240 -17 6 -22 -28 -19 -112z"/>
<path d="M5123 5630 c-2 -64 2 -73 19 -45 11 20 28 31 38 25 9 -6 22 -2 29 8
6 10 -5 16 -24 13 -21 -3 -40 11 -48 37 -9 29 -13 18 -14 -38z"/>
<path d="M5200 5676 c0 -9 14 -16 30 -16 23 0 30 -27 30 -123 0 -68 6 -118 13
-110 8 7 12 50 10 96 -2 55 9 98 32 124 19 22 24 33 10 25 -14 -8 -25 -5 -25
7 0 11 -22 19 -50 16 -27 -2 -50 -11 -50 -19z"/>
<path d="M451 5639 c18 -30 -29 -79 -62 -66 -16 6 -29 3 -29 -7 0 -10 21 -18
46 -18 57 0 107 83 61 101 -17 6 -24 2 -16 -10z"/>
<path d="M5791 5615 c15 -39 -22 -49 -38 -10 -6 16 -10 17 -11 2 -3 -37 46
-67 79 -47 25 16 24 24 -7 54 -34 34 -35 34 -23 1z"/>
<path d="M5120 5410 c0 -75 6 -131 14 -123 14 14 9 237 -6 251 -4 5 -8 -53 -8
-128z"/>
<path d="M5688 5456 c5 -29 -1 -57 -14 -61 -12 -4 -6 -14 13 -21 24 -9 30 -6
21 10 -10 15 -4 19 17 11 20 -8 35 1 41 26 6 23 2 34 -9 27 -11 -7 -33 5 -48
25 -27 35 -29 33 -21 -17z"/>
<path d="M3 5200 c-1 -101 3 -122 19 -93 12 20 17 41 11 47 -6 5 -2 32 8 58
11 28 11 48 0 48 -10 0 -22 16 -27 35 -5 19 -10 -23 -11 -95z"/>
<path d="M5853 5247 c-7 -8 -13 -30 -13 -50 0 -20 -9 -37 -20 -37 -11 0 -20
16 -20 35 -1 29 -4 30 -19 6 -12 -19 -11 -35 2 -43 11 -7 17 -18 14 -25 -4 -6
8 -29 26 -51 19 -21 28 -44 22 -50 -6 -7 -7 -12 -1 -12 6 0 23 15 39 34 15 19
17 28 3 20 -36 -22 -45 11 -26 97 18 80 17 99 -7 76z"/>
<path d="M393 5111 c-7 -19 -4 -28 7 -21 11 7 20 -1 20 -18 0 -19 -11 -26 -30
-19 -19 7 -30 -1 -30 -22 0 -18 9 -28 20 -21 11 7 20 2 20 -10 0 -13 11 -16
25 -7 15 8 12 -1 -5 -23 -16 -21 -19 -31 -6 -24 14 9 27 -3 32 -31 6 -25 9 -3
8 49 -2 110 -40 202 -61 147z"/>
<path d="M302 5000 c-1 -38 7 -83 18 -100 25 -39 25 71 0 130 -14 33 -17 27
-18 -30z"/>
<path d="M25 4995 c-11 -14 -20 -147 -19 -305 0 -154 4 -263 9 -242 7 30 13
32 27 10 13 -21 17 -16 18 18 0 30 -8 41 -23 32 -15 -9 -18 -5 -7 12 22 35 27
260 6 260 -10 0 -7 19 5 43 16 29 17 56 3 86 -12 28 -13 56 -1 77 22 40 11 45
-18 9z"/>
<path d="M5874 4926 c9 -24 15 -24 28 -3 11 19 24 7 44 -41 17 -39 34 -58 42
-45 22 35 -34 113 -81 115 -30 2 -40 -6 -33 -26z"/>
<path d="M5380 4915 c0 -14 -6 -46 -13 -73 -10 -35 -6 -45 15 -38 29 10 42
136 14 136 -9 0 -16 -11 -16 -25z"/>
<path d="M5872 4849 c-6 -18 -12 -50 -12 -72 0 -25 -9 -34 -23 -25 -14 9 -18
5 -9 -9 26 -42 50 -24 63 48 15 75 2 113 -19 58z"/>
<path d="M5900 4702 c0 -11 -13 -16 -30 -9 -19 7 -30 -1 -30 -23 0 -21 11 -30
28 -24 36 14 116 -43 99 -70 -8 -13 -4 -16 9 -8 28 17 11 65 -29 80 -16 7 -24
20 -18 30 6 11 3 25 -9 32 -11 7 -20 3 -20 -8z"/>
<path d="M5640 4590 c-14 -16 -22 -31 -17 -32 78 -24 119 -13 86 23 -42 47
-38 46 -69 9z"/>
<path d="M5900 4498 c0 -35 -5 -38 -28 -19 -20 16 -33 16 -41 2 -8 -12 1 -21
19 -21 18 0 27 -9 20 -20 -7 -11 -4 -20 7 -20 10 0 28 27 40 60 13 36 13 60 2
60 -10 0 -19 -19 -19 -42z"/>
<path d="M5780 4338 c0 -12 -13 -17 -30 -11 -16 7 -30 3 -30 -8 0 -10 11 -19
25 -19 14 0 45 -6 70 -13 26 -7 45 -3 45 10 0 12 -11 19 -25 16 -14 -4 -18 -3
-10 2 26 15 16 45 -15 45 -16 0 -30 -10 -30 -22z"/>
<path d="M5871 4285 c2 -30 5 -62 6 -70 5 -27 38 -16 51 16 6 18 3 26 -8 19
-11 -7 -20 10 -20 39 0 28 -7 51 -16 51 -9 0 -14 -25 -13 -55z"/>
<path d="M30 4185 c-23 -17 -26 -76 -5 -97 8 -8 15 6 15 31 0 31 9 42 29 34
19 -7 25 -1 18 18 -12 32 -27 36 -57 14z"/>
<path d="M5883 1967 c-11 -21 -25 -35 -32 -32 -6 3 -12 -2 -12 -9 -4 -35 40
-25 61 14 28 53 12 78 -17 27z"/>
<path d="M24 1883 c-13 -28 -23 -78 -22 -112 3 -59 3 -59 17 -11 32 107 46
140 63 140 10 0 18 8 18 17 0 37 -54 13 -76 -34z"/>
<path d="M5980 1728 c0 -28 -5 -29 -33 -5 -32 25 -32 24 0 -25 18 -28 27 -57
20 -65 -8 -7 -3 -13 10 -13 13 0 23 30 23 70 0 39 -4 70 -10 70 -5 0 -10 -15
-10 -32z"/>
<path d="M147 1558 c9 -153 41 -170 49 -26 4 74 -3 109 -26 128 -28 23 -30 13
-23 -102z"/>
<path d="M3 823 c2 -780 4 -823 38 -823 20 0 43 10 50 22 23 36 14 731 -9 775
-12 22 -16 56 -9 75 9 21 6 30 -7 22 -13 -9 -16 13 -6 64 8 43 6 92 -3 108
-10 17 -13 64 -8 105 6 41 4 85 -4 97 -21 32 -27 176 -8 164 17 -11 -7 185
-26 203 -5 6 -9 -360 -8 -812z m77 -563 c0 -55 -9 -100 -20 -100 -11 0 -20 45
-20 100 0 55 9 100 20 100 11 0 20 -45 20 -100z"/>
<path d="M5790 1580 c2 -33 -4 -60 -13 -60 -9 0 -17 -14 -17 -31 0 -28 4 -28
33 1 24 24 37 26 47 10 10 -16 18 -13 27 9 12 32 -38 131 -66 131 -8 0 -13
-27 -11 -60z"/>
<path d="M5688 1592 c-18 -47 23 -89 56 -56 19 19 17 32 -9 58 -31 31 -34 31
-47 -2z"/>
<path d="M5942 1482 c-23 -23 -41 -58 -40 -77 3 -33 3 -33 12 0 5 20 17 30 27
24 10 -6 13 4 5 23 -8 23 -5 30 9 21 12 -8 28 -4 36 8 25 42 -8 42 -49 1z"/>
<path d="M5721 1447 c0 -24 -6 -60 -13 -80 -9 -29 -7 -31 8 -9 11 15 34 22 51
16 18 -7 37 -4 44 7 6 10 -3 19 -20 19 -18 0 -40 20 -50 45 l-18 45 -2 -43z"/>
<path d="M120 1380 c0 -12 8 -17 18 -11 10 6 23 -2 29 -18 6 -16 3 -31 -5 -35
-35 -13 -44 -91 -13 -103 17 -6 32 -1 33 13 11 133 6 164 -27 170 -19 4 -35
-3 -35 -16z"/>
<path d="M5677 1177 c-31 -31 -31 -35 -2 -46 40 -16 64 10 48 50 -11 27 -17
26 -46 -4z"/>
<path d="M372 1105 c19 -104 28 -107 28 -8 0 46 -9 83 -21 83 -13 0 -16 -28
-7 -75z"/>
<path d="M5261 921 c2 -47 3 -47 19 -11 9 22 18 29 19 15 2 -39 32 -29 32 11
0 21 -14 35 -35 35 -26 0 -36 -14 -35 -50z"/>
<path d="M5920 940 c0 -11 -13 -20 -30 -20 -30 0 -65 -92 -42 -114 6 -7 12 1
12 18 0 63 77 108 110 64 23 -30 29 -32 29 -7 1 33 -36 79 -63 79 -9 0 -16 -9
-16 -20z"/>
<path d="M5982 815 c-1 -19 -16 -35 -34 -35 -20 0 -28 -11 -21 -30 7 -16 3
-30 -8 -30 -10 0 -19 -8 -19 -18 0 -10 18 -14 40 -8 22 6 34 19 28 29 -6 10
-1 32 12 47 13 16 19 40 13 54 -6 16 -10 13 -11 -9z"/>
<path d="M645 690 c5 -32 19 -61 32 -66 34 -11 28 67 -8 97 -27 22 -30 18 -24
-31z"/>
<path d="M961 508 c1 -131 9 -274 18 -318 9 -47 12 48 6 230 -13 371 -25 420
-24 88z"/>
<path d="M5971 624 c7 -36 4 -77 -5 -90 -17 -22 -18 -45 -7 -89 2 -8 12 3 21
25 24 56 23 154 -2 190 -15 22 -17 13 -7 -36z"/>
<path d="M5665 554 c-20 -25 -46 -134 -32 -134 5 0 18 25 30 55 20 51 23 52
37 15 14 -36 17 -37 30 -6 18 46 -37 106 -65 70z"/>
<path d="M500 522 c0 -10 18 -14 40 -8 29 8 40 1 41 -27 2 -34 3 -34 19 3 14
33 17 27 18 -30 1 -53 -3 -63 -18 -40 -18 27 -22 27 -39 0 -15 -22 -11 -32 12
-37 21 -4 28 -22 22 -54 -5 -26 -1 -43 8 -37 10 6 16 -30 14 -80 -2 -50 -11
-86 -20 -80 -9 6 -17 2 -17 -9 0 -10 14 -24 30 -30 17 -7 31 -32 31 -57 2 -45
2 -45 23 4 12 28 20 61 18 75 -2 14 6 25 17 25 12 0 21 10 21 21 0 12 -9 16
-20 9 -11 -7 -20 -3 -20 9 0 11 9 21 20 21 28 0 25 32 -7 64 -14 14 -22 39
-17 54 6 17 0 22 -13 14 -14 -9 -18 -3 -11 17 7 17 19 26 28 21 9 -6 14 4 12
22 -3 17 -16 38 -31 47 -18 12 -19 18 -2 24 13 4 18 23 10 42 -14 37 -169 52
-169 17z"/>
<path d="M5969 355 c-11 -25 -30 -43 -41 -41 -12 2 -21 -23 -21 -55 0 -48 8
-59 45 -59 42 0 46 9 45 100 -1 115 -1 115 -28 55z"/>
<path d="M1134 250 c7 -77 15 -144 19 -148 15 -18 3 210 -13 248 -10 24 -12
-15 -6 -100z"/>
<path d="M4607 280 c-2 -44 5 -75 15 -69 22 14 24 149 3 149 -8 0 -16 -36 -18
-80z"/>
<path d="M1320 177 c0 -79 6 -138 13 -130 20 20 24 273 4 273 -9 0 -17 -64
-17 -143z"/>
<path d="M5772 197 c10 -16 1 -20 -26 -13 -33 9 -38 2 -30 -37 10 -56 21 -58
56 -12 32 42 36 85 7 85 -12 0 -15 -10 -7 -23z"/>
</g>
</svg>
